<?xml version="1.0" standalone="no"?>
<!DOCTYPE svg PUBLIC "-//W3C//DTD SVG 20010904//EN"
 "http://www.w3.org/TR/2001/REC-SVG-20010904/DTD/svg10.dtd">
<svg version="1.0" xmlns="http://www.w3.org/2000/svg"
 width="600.000000pt" height="450.000000pt" viewBox="0 0 600.000000 450.000000"
 preserveAspectRatio="xMidYMid meet">

<g transform="translate(0.000000,450.000000) scale(0.100000,-0.100000)"
fill="#000000" stroke="none">
<path d="M2190 3158 c-1 -172 -5 -333 -9 -358 -13 -65 -56 -100 -121 -100 -69
0 -106 34 -120 109 -6 30 -11 55 -13 56 -1 2 -22 0 -47 -4 l-45 -6 1 -58 c2
-75 40 -141 103 -174 86 -45 239 -25 298 38 56 61 58 76 61 457 l3 352 -55 0
-56 0 0 -312z"/>
<path d="M2490 3041 l0 -431 55 0 55 0 0 174 0 174 173 4 c154 3 178 6 225 27
99 44 147 130 140 249 -5 98 -41 156 -123 197 l-60 30 -232 3 -233 4 0 -431z
m466 303 c51 -38 65 -66 65 -129 0 -66 -17 -98 -72 -130 -29 -17 -56 -20 -191
-24 l-158 -3 0 157 0 157 164 -4 c148 -3 167 -5 192 -24z"/>
<path d="M3272 3047 c-89 -232 -162 -425 -162 -430 0 -4 26 -7 58 -7 l58 0 46
128 46 127 182 0 182 0 48 -125 47 -125 66 -3 66 -3 -95 233 c-52 128 -131
322 -176 431 l-80 197 -62 0 -61 0 -163 -423z m254 241 c15 -46 47 -135 70
-198 24 -63 44 -118 44 -122 0 -5 -63 -8 -140 -8 -97 0 -140 3 -140 11 0 7 24
77 54 158 30 80 60 167 66 194 7 26 14 47 15 47 2 0 16 -37 31 -82z"/>
<path d="M1430 1726 c0 -69 -4 -136 -10 -150 -15 -41 -70 -29 -70 16 0 10 -7
18 -16 18 -13 0 -15 -7 -11 -36 8 -48 23 -64 61 -64 66 0 76 26 76 199 0 119
-2 141 -15 141 -13 0 -15 -20 -15 -124z"/>
<path d="M2210 1681 c0 -159 1 -172 18 -169 14 3 18 16 20 71 l3 67 54 0 c80
0 116 44 101 124 -10 52 -34 67 -120 73 l-76 6 0 -172z m134 119 c22 -8 26
-16 26 -48 0 -50 -14 -62 -72 -62 l-48 0 0 60 0 60 34 0 c19 0 46 -4 60 -10z"/>
<path d="M2960 1825 c0 -16 6 -25 15 -25 9 0 15 9 15 25 0 16 -6 25 -15 25 -9
0 -15 -9 -15 -25z"/>
<path d="M4277 1843 c-12 -21 -98 -326 -93 -330 14 -14 34 10 45 52 l12 46 56
-3 57 -3 15 -47 c10 -34 20 -48 33 -48 10 0 18 3 18 8 -1 4 -25 79 -53 167
-37 111 -58 161 -69 163 -9 2 -18 -1 -21 -5z m59 -175 c5 -15 -1 -18 -39 -18
l-44 0 21 76 21 75 18 -58 c9 -32 20 -66 23 -75z"/>
<path d="M4450 1681 c0 -143 2 -171 15 -171 11 0 15 16 17 68 l3 67 63 5 c48
4 67 10 78 25 35 48 29 125 -12 151 -14 10 -55 19 -94 22 l-70 5 0 -172z m151
108 c13 -20 11 -73 -3 -87 -7 -7 -36 -12 -65 -12 l-53 0 0 53 c0 30 3 57 8 61
12 13 103 0 113 -15z"/>
<path d="M4700 1680 c0 -144 2 -170 15 -170 13 0 15 26 15 170 0 144 -2 170
-15 170 -13 0 -15 -26 -15 -170z"/>
<path d="M3237 1823 c-4 -3 -7 -21 -7 -40 0 -18 -4 -33 -10 -33 -5 0 -10 -7
-10 -15 0 -8 5 -15 10 -15 6 0 10 -38 10 -93 0 -99 7 -117 47 -117 29 0 30 25
3 40 -17 9 -20 21 -20 90 0 64 3 80 15 80 8 0 15 7 15 15 0 8 -7 15 -15 15
-11 0 -15 11 -15 40 0 38 -8 49 -23 33z"/>
<path d="M1552 1750 c-18 -8 -42 -45 -42 -66 0 -13 31 -1 40 16 16 29 68 27
79 -2 12 -31 8 -35 -39 -43 -57 -10 -82 -33 -83 -79 -2 -60 58 -87 111 -50 20
14 22 14 22 0 0 -9 8 -16 18 -16 15 0 17 10 12 106 -5 96 -7 108 -29 125 -25
20 -53 23 -89 9z m83 -142 c-4 -13 -9 -31 -11 -40 -6 -20 -45 -33 -70 -24 -10
4 -14 15 -12 33 2 22 11 31 38 40 53 18 62 16 55 -9z"/>
<path d="M1943 1750 c-21 -9 -43 -39 -43 -59 0 -20 28 -12 35 10 5 16 14 20
43 17 32 -3 37 -7 40 -30 3 -24 -1 -27 -39 -33 -75 -13 -110 -71 -73 -123 18
-27 64 -29 99 -6 23 15 25 15 25 0 0 -9 7 -16 16 -16 14 0 15 13 9 108 -4 59
-12 113 -19 119 -16 17 -67 24 -93 13z m77 -148 c0 -60 -82 -87 -88 -29 -3 23
2 30 30 42 48 21 58 19 58 -13z"/>
<path d="M2480 1732 c-48 -48 -52 -141 -9 -196 29 -37 89 -37 118 0 23 29 27
54 10 54 -6 0 -20 -11 -31 -25 -11 -14 -27 -25 -37 -25 -21 0 -46 27 -54 58
-5 21 -3 22 64 22 l69 0 0 41 c0 31 -6 47 -29 70 -37 37 -65 37 -101 1z m90
-31 c18 -34 12 -41 -40 -41 -52 0 -58 7 -40 41 7 12 21 19 40 19 19 0 33 -7
40 -19z"/>
<path d="M2697 1743 c-11 -11 -17 -13 -17 -5 0 7 -7 12 -15 12 -13 0 -15 -17
-13 -117 3 -103 5 -118 21 -121 15 -3 17 6 17 87 0 92 13 127 44 115 8 -3 16
3 19 15 3 12 -1 22 -10 25 -22 9 -27 8 -46 -11z"/>
<path d="M2791 1739 c-26 -28 -27 -70 -3 -92 10 -9 35 -23 55 -32 43 -18 55
-38 36 -61 -18 -22 -62 -14 -74 14 -12 27 -35 29 -35 2 0 -32 36 -60 75 -60
58 0 90 49 69 105 -4 9 -31 27 -61 41 -40 17 -54 28 -51 41 4 24 66 31 74 9 7
-19 34 -21 34 -3 0 25 -25 48 -61 53 -29 5 -40 2 -58 -17z"/>
<path d="M3067 1749 c-26 -15 -38 -54 -27 -85 7 -17 26 -32 60 -46 52 -22 64
-44 35 -68 -20 -17 -62 -5 -70 20 -7 21 -35 28 -35 9 0 -15 21 -53 34 -61 20
-14 73 -8 95 10 25 19 31 73 12 96 -7 8 -32 23 -57 32 -34 13 -44 22 -44 39 0
31 36 39 61 14 27 -27 51 -25 40 4 -14 38 -68 57 -104 36z"/>
<path d="M3370 1747 c-34 -17 -50 -53 -50 -115 0 -55 12 -88 39 -109 17 -13
60 -17 86 -7 18 7 47 58 38 68 -12 11 -33 6 -33 -9 0 -14 -29 -35 -49 -35 -18
0 -51 39 -51 60 0 18 7 20 70 20 67 0 70 1 70 24 0 43 -22 86 -51 101 -34 18
-37 18 -69 2z m68 -39 c7 -7 12 -20 12 -30 0 -15 -9 -18 -50 -18 -54 0 -58 4
-34 38 17 24 53 29 72 10z"/>
<path d="M3582 1744 c-12 -8 -22 -10 -22 -5 0 6 -7 11 -15 11 -12 0 -15 -20
-15 -120 0 -100 3 -120 15 -120 12 0 15 16 15 83 0 88 15 127 49 127 33 0 41
-21 41 -117 0 -76 3 -93 15 -93 12 0 15 18 15 105 0 92 -3 108 -20 125 -24 24
-48 25 -78 4z"/>
<path d="M3775 1748 c-26 -15 -33 -25 -45 -70 -12 -43 2 -123 27 -150 33 -37
123 -10 123 37 0 8 0 18 0 23 0 17 -22 5 -33 -18 -17 -33 -51 -37 -71 -8 -18
26 -22 109 -6 139 15 26 66 26 75 -1 8 -26 35 -26 35 -1 0 22 -44 61 -69 61
-9 0 -25 -6 -36 -12z"/>
<path d="M3963 1750 c-32 -13 -53 -61 -53 -120 0 -77 29 -119 82 -120 14 0 34
3 43 6 18 7 47 58 38 68 -13 12 -28 5 -38 -16 -20 -45 -78 -29 -91 25 l-6 27
71 0 c69 0 71 1 71 25 0 43 -27 94 -55 105 -31 12 -33 12 -62 0z m74 -60 c12
-25 12 -25 -38 -28 -28 -2 -54 -1 -56 2 -3 3 2 17 11 31 22 34 65 31 83 -5z"/>
<path d="M1700 1747 c0 -2 4 -17 10 -33 5 -16 21 -68 35 -116 17 -56 31 -88
40 -88 12 0 36 66 82 223 4 14 0 18 -13 15 -12 -2 -24 -28 -42 -92 -14 -50
-27 -86 -29 -80 -2 5 -13 45 -26 89 -16 56 -28 81 -40 83 -9 2 -17 2 -17 -1z"/>
<path d="M2960 1630 c0 -100 3 -120 15 -120 13 0 15 20 15 120 0 100 -2 120
-15 120 -12 0 -15 -20 -15 -120z"/>
</g>
</svg>
