<?xml version="1.0" standalone="no"?>
<!DOCTYPE svg PUBLIC "-//W3C//DTD SVG 20010904//EN"
 "http://www.w3.org/TR/2001/REC-SVG-20010904/DTD/svg10.dtd">
<svg version="1.0" xmlns="http://www.w3.org/2000/svg"
 width="549.000000pt" height="238.000000pt" viewBox="0 0 549.000000 238.000000"
 preserveAspectRatio="xMidYMid meet">

<g transform="translate(0.000000,238.000000) scale(0.100000,-0.100000)"
fill="#000000" stroke="none">
<path d="M862 1614 c-266 -271 -368 -382 -370 -401 -3 -23 45 -75 373 -403
l376 -377 367 374 c313 319 367 379 367 403 0 25 -53 83 -373 404 l-372 374
-368 -374z m498 -289 l115 -116 -120 -114 c-66 -63 -122 -114 -125 -115 -3 0
-57 52 -120 115 l-114 115 119 114 c66 63 122 115 125 115 3 1 57 -51 120
-114z"/>
<path d="M3129 1855 c-51 -27 -64 -121 -23 -166 27 -29 78 -42 118 -29 52 17
71 44 71 102 0 43 -4 53 -33 79 -37 33 -88 38 -133 14z"/>
<path d="M2737 1804 c-4 -4 -7 -203 -7 -443 0 -273 -4 -450 -11 -474 -26 -97
-109 -138 -237 -118 -39 6 -77 14 -86 17 -14 5 -16 -5 -16 -74 l0 -79 57 -12
c162 -32 291 -4 367 80 81 90 81 88 81 629 l0 475 -70 3 c-39 1 -74 0 -78 -4z"/>
<path d="M4327 1530 c-135 -34 -231 -139 -272 -297 -20 -76 -20 -261 0 -338
35 -134 98 -220 193 -267 56 -27 178 -36 250 -18 64 16 139 65 170 114 l27 40
5 -75 5 -74 75 0 75 0 3 453 2 453 -77 -3 -78 -3 -5 -68 -5 -67 -35 47 c-49
67 -123 103 -221 108 -41 2 -91 0 -112 -5z m261 -173 c47 -31 85 -84 101 -143
14 -51 13 -260 -2 -301 -50 -134 -187 -201 -328 -160 -106 31 -159 120 -167
278 -7 149 24 251 93 306 52 42 91 53 181 50 69 -2 86 -6 122 -30z"/>
<path d="M3813 1514 c-47 -17 -129 -85 -138 -115 -12 -37 -25 -8 -25 57 l0 64
-75 0 -75 0 2 -452 3 -453 72 -3 72 -3 3 308 c3 299 4 309 26 355 39 78 102
110 223 110 l69 1 0 73 0 74 -57 -1 c-32 0 -77 -7 -100 -15z"/>
<path d="M3112 1068 l3 -453 75 0 75 0 0 450 0 450 -78 3 -77 3 2 -453z"/>
</g>
</svg>
