<?xml version="1.0" standalone="no"?>
<!DOCTYPE svg PUBLIC "-//W3C//DTD SVG 20010904//EN"
 "http://www.w3.org/TR/2001/REC-SVG-20010904/DTD/svg10.dtd">
<svg version="1.0" xmlns="http://www.w3.org/2000/svg"
 width="331.000000pt" height="152.000000pt" viewBox="0 0 331.000000 152.000000"
 preserveAspectRatio="xMidYMid meet">

<g transform="translate(0.000000,152.000000) scale(0.100000,-0.100000)"
fill="#000000" stroke="none">
<path d="M733 1195 c15 -95 91 -153 212 -162 l75 -6 0 -63 c0 -74 11 -109 48
-147 31 -34 64 -52 110 -62 l32 -7 0 229 c0 165 -3 232 -12 241 -9 9 -76 12
-241 12 l-230 0 6 -35z"/>
<path d="M1937 1162 c-20 -22 -22 -85 -4 -100 12 -10 38 -15 69 -13 48 3 67
87 26 115 -30 21 -71 20 -91 -2z"/>
<path d="M1690 856 c0 -157 -4 -296 -10 -310 -15 -40 -55 -60 -116 -59 -29 1
-63 4 -74 8 -18 6 -20 2 -20 -43 0 -58 6 -62 113 -62 105 0 156 30 194 115 15
35 18 80 21 338 l4 297 -56 0 -56 0 0 -284z"/>
<path d="M603 1003 l-93 -4 0 -27 c0 -38 43 -102 88 -131 29 -19 54 -26 115
-29 l77 -5 0 -51 c0 -69 15 -119 47 -157 29 -34 94 -68 131 -69 l22 0 0 230
c0 216 -1 230 -19 240 -19 9 -148 10 -368 3z"/>
<path d="M2384 959 c-16 -5 -47 -25 -67 -45 l-37 -37 0 41 0 42 -50 0 -50 0 0
-285 0 -285 50 0 50 0 0 195 c0 216 6 242 59 270 16 8 54 18 85 21 l56 7 0 43
c0 43 -1 44 -32 43 -18 0 -47 -5 -64 -10z"/>
<path d="M2665 951 c-83 -38 -135 -128 -143 -246 -12 -195 79 -325 228 -325
67 0 126 26 163 69 l27 33 0 -46 0 -46 50 0 50 0 0 285 0 285 -50 0 -50 0 0
-41 0 -41 -29 31 c-16 17 -45 38 -65 46 -48 20 -132 19 -181 -4z m203 -91 c53
-33 75 -94 70 -200 -3 -95 -15 -122 -71 -164 -37 -28 -122 -32 -167 -9 -51 27
-73 72 -78 163 -7 114 15 170 83 211 41 26 120 25 163 -1z"/>
<path d="M1930 675 l0 -285 50 0 50 0 0 285 0 285 -50 0 -50 0 0 -285z"/>
<path d="M292 738 c11 -52 48 -102 91 -125 18 -9 66 -19 107 -22 l75 -6 5 -75
c4 -55 12 -86 29 -113 23 -38 84 -80 132 -91 l27 -6 7 225 c6 173 4 229 -5
240 -10 13 -51 15 -245 15 l-233 0 10 -42z"/>
</g>
</svg>
