<?xml version="1.0" standalone="no"?>
<!DOCTYPE svg PUBLIC "-//W3C//DTD SVG 20010904//EN"
 "http://www.w3.org/TR/2001/REC-SVG-20010904/DTD/svg10.dtd">
<svg version="1.0" xmlns="http://www.w3.org/2000/svg"
 width="340.000000pt" height="86.000000pt" viewBox="0 0 340.000000 86.000000"
 preserveAspectRatio="xMidYMid meet">

<g transform="translate(0.000000,86.000000) scale(0.100000,-0.100000)"
fill="#000000" stroke="none">
<path d="M212 818 c-14 -17 -145 -675 -137 -688 3 -6 33 -10 66 -10 52 0 61 3
69 23 6 12 28 111 50 221 21 109 41 201 44 204 14 14 19 -6 56 -258 31 -213
20 -191 91 -188 l61 3 121 222 c67 123 125 223 130 223 13 0 7 -43 -33 -239
-22 -106 -37 -197 -34 -202 8 -14 120 -11 131 4 14 17 146 674 138 687 -9 15
-200 13 -213 -2 -5 -7 -58 -105 -117 -218 -102 -195 -129 -239 -139 -229 -2 2
-19 103 -36 224 -17 121 -34 223 -36 227 -9 14 -200 9 -212 -4z"/>
<path d="M1221 640 c-70 -15 -131 -50 -162 -93 -47 -65 -43 -71 51 -67 36 1
51 8 78 36 28 29 40 34 81 34 60 0 84 -17 79 -55 -5 -42 -42 -63 -133 -75
-118 -16 -168 -35 -209 -80 -56 -62 -61 -153 -10 -201 21 -20 38 -24 103 -27
64 -3 87 0 130 19 49 21 54 21 63 6 11 -21 126 -25 132 -5 2 7 21 104 42 216
l38 202 -20 28 c-11 15 -36 35 -55 44 -42 21 -149 30 -208 18z m97 -308 c5
-31 -35 -100 -68 -117 -16 -8 -49 -15 -74 -15 -55 0 -83 30 -67 71 15 40 45
59 117 73 82 17 88 16 92 -12z"/>
<path d="M2313 636 c-105 -33 -192 -121 -224 -228 -36 -117 -12 -216 64 -266
58 -38 181 -44 255 -12 54 23 147 112 139 133 -2 7 -24 12 -55 12 -38 -1 -57
-6 -74 -22 -85 -80 -220 -41 -206 59 l3 23 176 3 c149 2 179 5 190 19 19 22
16 138 -5 185 -38 86 -154 128 -263 94z m123 -121 c17 -17 24 -34 22 -53 l-3
-27 -103 -3 c-113 -3 -128 5 -97 51 38 58 137 76 181 32z"/>
<path d="M2964 636 c-23 -7 -52 -21 -65 -30 -30 -21 -36 -20 -42 4 -4 17 -14
20 -65 20 -49 0 -62 -3 -66 -17 -16 -55 -96 -469 -92 -480 6 -15 122 -18 131
-4 3 5 19 75 35 156 40 197 57 230 132 248 29 8 78 -7 90 -26 14 -22 8 -76
-22 -223 -16 -81 -27 -150 -24 -155 3 -5 32 -9 65 -9 72 0 67 -10 109 206 33
172 36 217 17 253 -29 57 -122 84 -203 57z"/>
<path d="M3210 635 c7 -8 10 -25 6 -40 -4 -14 -2 -25 4 -25 5 0 13 12 16 28 4
15 14 32 23 39 13 10 10 12 -23 13 -33 0 -37 -2 -26 -15z"/>
<path d="M3276 628 c-9 -34 -7 -58 4 -58 6 0 10 10 11 23 0 21 1 21 10 -3 l10
-25 21 25 c21 24 21 24 15 3 -3 -13 -1 -23 4 -23 5 0 11 12 15 28 3 15 7 33
10 40 6 21 -23 13 -39 -10 l-16 -23 -7 23 c-3 12 -12 22 -19 22 -7 0 -15 -10
-19 -22z"/>
<path d="M1653 563 c-13 -2 -23 -10 -23 -17 0 -32 33 -199 56 -285 14 -51 23
-95 21 -97 -7 -7 -56 186 -74 294 -18 104 -35 128 -41 56 -5 -59 17 -181 44
-249 14 -33 26 -66 28 -73 1 -8 8 -17 15 -21 7 -5 12 -12 12 -17 -1 -5 7 -9
17 -10 13 -1 33 25 72 95 29 53 86 145 127 205 56 82 72 111 63 120 -23 22
-156 -149 -211 -271 -16 -36 -32 -63 -35 -60 -3 3 -1 14 5 25 16 29 14 102 -4
152 -8 23 -15 56 -15 72 0 17 -4 27 -10 23 -6 -4 -10 8 -10 29 0 20 -3 35 -7
35 -5 -1 -18 -4 -30 -6z"/>
<path d="M1958 498 c-47 -58 -116 -165 -172 -270 -37 -69 -43 -86 -29 -83 62
13 73 16 70 24 -1 5 7 16 17 24 18 13 16 14 -15 10 l-34 -3 40 19 c54 25 116
94 103 115 -2 2 6 13 16 25 11 12 16 21 11 21 -4 0 4 9 19 21 30 24 34 39 9
39 -15 1 -14 3 5 13 12 7 29 22 37 34 13 19 13 22 -10 37 -13 9 -26 16 -28 16
-3 0 -20 -19 -39 -42z"/>
<path d="M1706 113 c-6 -14 -5 -15 5 -6 7 7 10 15 7 18 -3 3 -9 -2 -12 -12z"/>
</g>
</svg>
