<?xml version="1.0" standalone="no"?>
<!DOCTYPE svg PUBLIC "-//W3C//DTD SVG 20010904//EN"
 "http://www.w3.org/TR/2001/REC-SVG-20010904/DTD/svg10.dtd">
<svg version="1.0" xmlns="http://www.w3.org/2000/svg"
 width="400.000000pt" height="400.000000pt" viewBox="0 0 400.000000 400.000000"
 preserveAspectRatio="xMidYMid meet">

<g transform="translate(0.000000,400.000000) scale(0.100000,-0.100000)"
fill="#000000" stroke="none">
<path d="M1850 3084 c-201 -39 -383 -136 -516 -276 -164 -173 -240 -350 -251
-583 -6 -137 6 -234 42 -340 14 -39 25 -74 25 -77 0 -3 -11 -9 -25 -12 -89
-23 -90 -22 70 -97 81 -38 151 -66 155 -62 16 17 138 283 131 283 -5 0 -28 -7
-52 -15 -51 -18 -50 -19 -80 80 -29 94 -35 229 -15 325 34 165 147 333 284
423 243 160 531 155 771 -14 180 -126 294 -366 277 -584 -13 -175 -77 -315
-198 -437 -96 -95 -228 -164 -362 -187 -38 -7 -312 -11 -758 -11 l-698 0 0
-120 0 -121 753 3 752 3 90 28 c310 97 537 324 631 633 25 81 28 103 28 249 0
146 -3 168 -28 250 -95 313 -336 551 -643 636 -59 16 -112 22 -218 24 -77 2
-151 1 -165 -1z"/>
<path d="M755 881 c-81 -21 -125 -71 -125 -143 0 -75 37 -107 167 -142 117
-32 146 -51 146 -95 0 -41 -29 -70 -83 -82 -52 -12 -139 3 -187 31 l-34 20
-11 -25 c-10 -21 -8 -28 8 -40 65 -50 238 -59 308 -16 90 56 88 178 -3 225
-15 8 -62 23 -104 34 -87 23 -123 42 -138 76 -16 35 11 81 57 96 45 15 140 8
181 -13 29 -16 31 -15 42 9 15 33 16 30 -28 48 -48 18 -154 28 -196 17z"/>
<path d="M1280 877 c-133 -37 -209 -145 -197 -276 6 -66 26 -112 71 -159 85
-91 243 -110 351 -41 l47 30 -23 25 c-19 21 -25 22 -38 10 -78 -68 -219 -60
-287 16 -42 46 -56 87 -52 153 3 47 11 73 31 104 62 93 203 117 298 50 26 -18
27 -18 44 1 15 17 16 22 4 36 -39 47 -170 73 -249 51z"/>
<path d="M1670 620 l0 -260 35 0 35 0 0 80 0 80 88 0 87 -1 54 -79 c50 -73 57
-80 88 -80 18 0 33 3 33 6 0 3 -23 37 -51 76 -27 38 -52 75 -55 82 -3 8 10 23
32 36 67 42 91 136 55 215 -39 85 -87 104 -268 105 l-133 0 0 -260z m290 185
c40 -21 60 -53 60 -98 0 -93 -51 -127 -189 -127 l-91 0 0 120 0 120 95 0 c66
0 105 -5 125 -15z"/>
<path d="M2210 708 c0 -95 5 -190 11 -211 25 -90 111 -143 221 -135 81 5 133
31 166 81 27 40 27 43 30 239 l4 198 -30 0 -30 0 -4 -182 c-3 -160 -5 -187
-23 -215 -52 -88 -213 -84 -260 6 -12 24 -15 67 -15 211 l0 180 -35 0 -35 0 0
-172z"/>
<path d="M2810 620 l0 -260 35 0 35 0 2 190 3 190 93 -155 c62 -103 99 -155
110 -155 11 0 47 51 105 150 49 83 93 153 98 156 5 3 9 -75 9 -185 l0 -191 30
0 30 0 0 260 0 260 -27 0 c-26 0 -37 -17 -132 -180 -58 -99 -108 -180 -112
-180 -4 0 -55 81 -113 180 -100 169 -109 180 -136 180 l-30 0 0 -260z"/>
</g>
</svg>
